<?xml version="1.0" encoding="UTF-8"?>
<svg xmlns="http://www.w3.org/2000/svg" xmlns:xlink="http://www.w3.org/1999/xlink" width="15px" height="15px" viewBox="0 0 15 15" version="1.1">
<g id="surface1">
<path style=" stroke:none;fill-rule:nonzero;fill:rgb(0%,0%,0%);fill-opacity:1;" d="M 305.808594 180.96875 L 170.433594 68.15625 L 170.433594 41.738281 L 180.871094 41.738281 C 186.789062 41.738281 191.558594 36.808594 191.292969 30.832031 C 191.046875 25.203125 186.179688 20.871094 180.542969 20.871094 L 170.4375 20.871094 L 170.4375 10.433594 C 170.433594 4.671875 165.761719 0 160 0 C 154.238281 0 149.566406 4.671875 149.566406 10.433594 L 149.566406 20.871094 L 139.128906 20.871094 C 133.199219 20.871094 128.425781 25.816406 128.707031 31.808594 C 128.972656 37.421875 133.804688 41.738281 139.425781 41.738281 L 149.566406 41.738281 L 149.566406 68.15625 L 14.191406 180.96875 C 9.761719 184.660156 9.164062 191.238281 12.855469 195.664062 C 16.542969 200.09375 23.125 200.6875 27.550781 197 L 160 86.625 L 292.449219 197 C 294.402344 198.628906 296.769531 199.421875 299.125 199.421875 C 302.113281 199.421875 305.082031 198.140625 307.148438 195.664062 C 310.835938 191.238281 310.238281 184.660156 305.808594 180.96875 Z M 305.808594 180.96875 "/>
</g>
</svg>
