<?xml version="1.0" encoding="iso-8859-1"?>
<!-- Generator: Adobe Illustrator 19.0.0, SVG Export Plug-In . SVG Version: 6.00 Build 0)  -->
<svg version="1.1" id="Layer_1" xmlns="http://www.w3.org/2000/svg" xmlns:xlink="http://www.w3.org/1999/xlink" x="0px" y="0px"
	 viewBox="0 0 512 512" style="enable-background:new 0 0 512 512;" xml:space="preserve">
<g>
	<g>
		<path d="M489.296,289.55l-216.6-180.501V66.783h16.696c9.471,0,17.101-7.887,16.679-17.451c-0.397-9.01-8.184-15.94-17.203-15.94
			h-16.171V16.696C272.695,7.475,265.22,0,256,0s-16.696,7.475-16.696,16.696v16.696h-16.696c-9.489,0-17.129,7.915-16.677,17.503
			c0.423,8.98,8.159,15.889,17.149,15.889h16.224v42.267L22.704,289.55c-7.083,5.904-8.041,16.431-2.138,23.514
			s16.431,8.039,23.514,2.138L256,138.602l211.92,176.601c3.122,2.601,6.911,3.87,10.68,3.87c4.784,0,9.532-2.046,12.835-6.008
			C497.338,305.981,496.379,295.454,489.296,289.55z"/>
	</g>
</g>
<g>
	<g>
		<path d="M256,182.068L66.782,339.75v155.555c0,9.22,7.475,16.696,16.696,16.696h345.043c9.22,0,16.696-7.475,16.696-16.696
			V339.749L256,182.068z M292.377,443.149c-10.567,8.566-21.454,18.235-33.995,29.006c-0.816,0.7-1.862,1.09-2.936,1.09
			c-1.08,0-2.13-0.392-2.947-1.097c-12.434-10.744-22.299-20.423-32.873-28.996c-45.797-37.128-69.695-58.008-69.695-90.349
			c0-15.256,5.236-29.479,14.743-40.046c9.799-10.892,23.397-16.89,38.291-16.89c15.822,0,29.249,6.878,39.907,20.44L256,333.013
			l13.127-16.707c10.657-13.561,24.084-20.439,39.906-20.439c14.894,0,28.493,5.998,38.291,16.89
			c9.508,10.567,14.743,24.79,14.743,40.046C362.067,385.143,338.17,406.023,292.377,443.149z"/>
	</g>
</g>
<g>
</g>
<g>
</g>
<g>
</g>
<g>
</g>
<g>
</g>
<g>
</g>
<g>
</g>
<g>
</g>
<g>
</g>
<g>
</g>
<g>
</g>
<g>
</g>
<g>
</g>
<g>
</g>
<g>
</g>
</svg>
